# xmcd
#
# Track frame offsets:
# 150
# 20846
# 37879
# 56544
# 69190
# 88135
# 108312
# 123133
# 139069
# 158925
# 179055
# 197563
# 214425
# 231485
# 247215
#
# Disc length: 3519 seconds
#
#
# Revision: 0
# Processed by: cddbd v1.5.2PL0 Copyright (c) Steve Scherf et al.
# Submitted via: FreeRIP 2.951 
#
DISCID=de0dbd0f
DTITLE=Zezé di Camargo e Luciano - Preciso de um tempo
DYEAR=2002
DGENRE=Sertanejo
TTITLE0=Preciso de um tempo
TTITLE1=Aonde você foi parar ?
TTITLE2=Baby come back
TTITLE3=Chamando seu nome
TTITLE4=Sou assim
TTITLE5=Balançou
TTITLE6=Eu era assim
TTITLE7=Imprevisível
TTITLE8=A ferro e fogo
TTITLE9=Rio e Nova York
TTITLE10=Um dia a mais
TTITLE11=Só amor pra ela
TTITLE12=Conflito
TTITLE13=Sufocado
TTITLE14=Coração de vidro
EXTD=
EXTT0=
EXTT1=
EXTT2=
EXTT3=
EXTT4=
EXTT5=
EXTT6=
EXTT7=
EXTT8=
EXTT9=
EXTT10=
EXTT11=
EXTT12=
EXTT13=
EXTT14=
PLAYORDER=
